<svg width="173" height="213" viewBox="0 0 173 213" fill="none" xmlns="http://www.w3.org/2000/svg">
<ellipse cx="155" cy="43.2499" rx="18" ry="17.6932" fill="#162669"/>
<ellipse cx="18" cy="17.6932" rx="18" ry="17.6932" fill="#162669"/>
<ellipse cx="94" cy="155.307" rx="18" ry="17.6932" fill="#162669"/>
<ellipse cx="79.5" cy="74.2131" rx="75.5" ry="74.2131" fill="#162669"/>
<ellipse cx="71.6257" cy="73.7578" rx="58.362" ry="57.3672" fill="#96C1C5"/>
<ellipse cx="85.9847" cy="61.4649" rx="10.6534" ry="10.4718" fill="#162669"/>
<ellipse cx="30.4018" cy="61.4649" rx="10.6534" ry="10.4718" fill="#162669"/>
<path d="M80.4261 55.1353C81.9488 55.1353 83.1683 56.3468 83.1683 57.8228C83.1681 59.2985 81.9487 60.5093 80.4261 60.5093C78.9037 60.5092 77.6842 59.2985 77.684 57.8228C77.684 56.3468 78.9035 55.1353 80.4261 55.1353Z" fill="#F3FFDE" stroke="#F3FFDE"/>
<path d="M24.8434 55.1353C26.3661 55.1353 27.5856 56.3468 27.5856 57.8228C27.5854 59.2985 26.366 60.5093 24.8434 60.5093C23.321 60.5092 22.1015 59.2985 22.1013 57.8228C22.1013 56.3468 23.3208 55.1353 24.8434 55.1353Z" fill="#F3FFDE" stroke="#F3FFDE"/>
<path d="M47.3985 84.6666C52.6361 86.1003 55.6838 86.2887 61.479 84.6666" stroke="#1D1669" stroke-width="2"/>
<ellipse cx="66.1726" cy="83.5" rx="6.03451" ry="3.5" fill="#B31739"/>
<ellipse cx="42.0345" cy="83.5" rx="6.03451" ry="3.5" fill="#B31739"/>
<path d="M52.1849 136C42.5434 167.193 42.6669 183.488 52.1849 210.5C74.8674 192.704 84.0483 196.064 98.1849 210.5C107.609 181.405 107.958 165.095 98.1849 136H52.1849Z" fill="#162669" stroke="#162669" stroke-width="2"/>
<ellipse cx="66" cy="171" rx="15" ry="23" fill="#96C1C5"/>
</svg>
