<svg width="100" height="100" viewBox="0 0 100 100" fill="none" xmlns="http://www.w3.org/2000/svg">
<circle cx="50" cy="50" r="49" stroke="#FFF0DE" stroke-width="2"/>
<path d="M0.5 49.5H9.5" stroke="#FFF0DE" stroke-width="2"/>
<path d="M91 50H100" stroke="#FFF0DE" stroke-width="2"/>
<path d="M51 100V91" stroke="#FFF0DE" stroke-width="2"/>
<path d="M50.5 9.5V0.5" stroke="#FFF0DE" stroke-width="2"/>
<circle cx="50.5" cy="50.5" r="41.5" stroke="#FFF0DE" stroke-width="2"/>
<ellipse cx="72.1734" cy="37" rx="5.82659" ry="5.72727" fill="#FFF0DE"/>
<ellipse cx="27.8266" cy="28.7273" rx="5.82659" ry="5.72727" fill="#FFF0DE"/>
<ellipse cx="52.4277" cy="73.2727" rx="5.82659" ry="5.72727" fill="#FFF0DE"/>
<ellipse cx="47.7341" cy="47.0227" rx="24.4393" ry="24.0227" fill="#FFF0DE"/>
<ellipse cx="45.1852" cy="46.8754" rx="18.8917" ry="18.5697" fill="#162669"/>
<ellipse cx="49.8332" cy="42.8962" rx="3.44849" ry="3.38971" fill="#FFF0DE"/>
<ellipse cx="31.8411" cy="42.8962" rx="3.44849" ry="3.38971" fill="#FFF0DE"/>
<path d="M48.0342 41.1854C48.3455 41.1856 48.5828 41.4314 48.583 41.7167C48.583 42.0021 48.3457 42.2488 48.0342 42.2489C47.7225 42.2489 47.4844 42.0022 47.4844 41.7167C47.4846 41.4313 47.7227 41.1854 48.0342 41.1854Z" fill="#FFF0DE" stroke="#FFF0DE"/>
<path d="M30.0421 41.1854C30.3535 41.1856 30.5907 41.4314 30.5909 41.7167C30.5909 42.0021 30.3536 42.2488 30.0421 42.2489C29.7305 42.2489 29.4923 42.0022 29.4923 41.7167C29.4925 41.4313 29.7306 41.1854 30.0421 41.1854Z" fill="#FFF0DE" stroke="#FFF0DE"/>
<path d="M37.3429 50.4066C39.0383 50.8706 40.0248 50.9316 41.9007 50.4066" stroke="#FFF0DE"/>
<path d="M44.9067 50.1329C44.9067 50.7587 44.0322 51.2659 42.9534 51.2659C41.8746 51.2659 41 50.7587 41 50.1329C41 49.5072 41.8746 49 42.9534 49C44.0322 49 44.9067 49.5072 44.9067 50.1329Z" fill="#FFF0DE"/>
<ellipse cx="35.9534" cy="50.1329" rx="1.95337" ry="1.13295" fill="#FFF0DE"/>
</svg>
