<svg width="122" height="30" viewBox="0 0 122 30" fill="none" xmlns="http://www.w3.org/2000/svg">
<path d="M0.291992 20V17.2451L1.29492 17.0864V13.1636L0.291992 13.0049V10.25H5.35742V14.1602L7.15381 10.25H12.1875V11.8115C11.5993 12.2389 11.0597 12.7277 10.5688 13.2778C10.078 13.828 9.62939 14.4056 9.22314 15.0107C9.67171 15.6243 10.133 16.2443 10.6069 16.8706C11.0851 17.4969 11.6077 18.0597 12.1748 18.5591V20H7.15381L5.35742 15.9312V20H0.291992ZM12.9746 20V17.0547L13.7109 16.9087L15.4692 11.0625H20.395L22.166 16.9087L22.896 17.0547V20H19.5L19.1826 18.4956H16.688L16.3706 20H12.9746ZM17.0752 16.4897H18.7954L17.9321 12.9795L17.0752 16.4897ZM23.6895 20V17.4673L24.4512 17.3213V13.7095L23.6895 13.5635V11.0625H28.2725L31.3257 15.8804V13.7222L30.564 13.5635V11.0625H34.3789V13.5635L33.6172 13.7095V17.3213L34.3789 17.4673V20H29.7959L26.7427 15.3091V17.3213L27.5107 17.4609V20H23.6895ZM35.1406 20V17.0547L35.877 16.9087L37.6353 11.0625H42.561L44.332 16.9087L45.062 17.0547V20H41.666L41.3486 18.4956H38.854L38.5366 20H35.1406ZM39.2412 16.4897H40.9614L40.0981 12.9795L39.2412 16.4897ZM45.9507 20V17.2451L46.9409 17.0864V13.1636L45.9507 13.0049V10.25H51.0034L54.2534 15.2456V13.1763L53.4409 13.0049V10.25H57.6812V13.0049L56.6909 13.1636V20H52.6221L49.3784 15.2456V17.0864L50.1909 17.2388V20H45.9507ZM58.4873 20V17.0547L59.2236 16.9087L60.9819 11.0625H65.9077L67.6787 16.9087L68.4087 17.0547V20H65.0127L64.6953 18.4956H62.2007L61.8833 20H58.4873ZM62.5879 16.4897H64.3081L63.4448 12.9795L62.5879 16.4897ZM69.2021 20V17.4673L69.9639 17.3213V13.7095L69.2021 13.5635V11.0625H73.7788L75.7021 14.4775L77.6064 11.0625H82.1831V13.5635L81.4214 13.7095V17.3213L82.1831 17.4673V20H77.6064V15.6265L75.7021 18.8511L73.7788 15.6265V20H69.2021ZM83.0527 20V17.4673L83.8145 17.3213V13.7095L83.0527 13.5635V11.0625H88.3975V13.5635L87.6357 13.7095V17.3213L88.3975 17.4673V20H83.0527Z" fill="#FFF0DE"/>
<ellipse cx="118.879" cy="7.50001" rx="3.12139" ry="3.06818" fill="#FFF0DE"/>
<ellipse cx="95.1214" cy="3.06818" rx="3.12139" ry="3.06818" fill="#FFF0DE"/>
<ellipse cx="108.301" cy="26.9318" rx="3.12139" ry="3.06818" fill="#FFF0DE"/>
<ellipse cx="105.786" cy="12.8693" rx="13.0925" ry="12.8693" fill="#FFF0DE"/>
<path d="M104.421 2.84277C110.01 2.84291 114.541 7.29613 114.541 12.79C114.541 18.2841 110.01 22.7381 104.421 22.7383C98.8315 22.7383 94.2998 18.2842 94.2998 12.79C94.3 7.29605 98.8316 2.84277 104.421 2.84277Z" fill="#162669"/>
<ellipse cx="106.911" cy="10.6587" rx="1.84741" ry="1.81592" fill="#FFF0DE"/>
<ellipse cx="97.272" cy="10.6587" rx="1.84741" ry="1.81592" fill="#FFF0DE"/>
<mask id="path-9-inside-1_35_169" fill="white">
<ellipse cx="105.947" cy="10.027" rx="0.562254" ry="0.55267"/>
</mask>
<ellipse cx="105.947" cy="10.027" rx="0.562254" ry="0.55267" fill="#FFF0DE"/>
<path d="M106.509 10.027H105.509C105.509 9.76384 105.721 9.57971 105.947 9.57971V10.5797V11.5797C106.793 11.5797 107.509 10.9007 107.509 10.027H106.509ZM105.947 10.5797V9.57971C106.172 9.57971 106.384 9.76384 106.384 10.027H105.384H104.384C104.384 10.9007 105.1 11.5797 105.947 11.5797V10.5797ZM105.384 10.027H106.384C106.384 10.2902 106.172 10.4744 105.947 10.4744V9.47437V8.47437C105.1 8.47437 104.384 9.15338 104.384 10.027H105.384ZM105.947 9.47437V10.4744C105.721 10.4744 105.509 10.2902 105.509 10.027H106.509H107.509C107.509 9.15338 106.793 8.47437 105.947 8.47437V9.47437Z" fill="#FFF0DE" mask="url(#path-9-inside-1_35_169)"/>
<mask id="path-11-inside-2_35_169" fill="white">
<ellipse cx="96.3081" cy="10.027" rx="0.562254" ry="0.55267"/>
</mask>
<ellipse cx="96.3081" cy="10.027" rx="0.562254" ry="0.55267" fill="#FFF0DE"/>
<path d="M96.8704 10.027H95.8704C95.8704 9.76384 96.0827 9.57971 96.3081 9.57971V10.5797V11.5797C97.1547 11.5797 97.8704 10.9007 97.8704 10.027H96.8704ZM96.3081 10.5797V9.57971C96.5336 9.57971 96.7459 9.76384 96.7459 10.027H95.7459H94.7459C94.7459 10.9007 95.4616 11.5797 96.3081 11.5797V10.5797ZM95.7459 10.027H96.7459C96.7459 10.2902 96.5336 10.4744 96.3081 10.4744V9.47437V8.47437C95.4616 8.47437 94.7459 9.15338 94.7459 10.027H95.7459ZM96.3081 9.47437V10.4744C96.0827 10.4744 95.8704 10.2902 95.8704 10.027H96.8704H97.8704C97.8704 9.15338 97.1547 8.47437 96.3081 8.47437V9.47437Z" fill="#FFF0DE" mask="url(#path-11-inside-2_35_169)"/>
<path d="M100.219 14.6821C101.128 14.9307 101.656 14.9634 102.661 14.6821" stroke="#FFF0DE"/>
<path d="M104.271 14.5355C104.271 14.8707 103.803 15.1425 103.225 15.1425C102.647 15.1425 102.179 14.8707 102.179 14.5355C102.179 14.2003 102.647 13.9286 103.225 13.9286C103.803 13.9286 104.271 14.2003 104.271 14.5355Z" fill="#FFF0DE"/>
<ellipse cx="99.475" cy="14.5355" rx="1.04645" ry="0.606936" fill="#FFF0DE"/>
</svg>
